:SAMPLES-PER-SECOND 30
:FRAME-RANGE 1-2009
:FULLY-SPECIFIED
:DEGREES
1884
root  64.8267 38.9394 14.5586 -174.098 46.6945 -174.792
RightUpLeg  -6.69182 -11.3596 -3.15252
RightLeg  21.8444 7.58223 3.56488
RightFoot  -14.3722 -0.00785305 3.38427
RightToes  2.96424e-010 1.2921e-014 -6.02303e-014
Spine  -1.9388 -1.29738 7.01918
Spine1  6.8706 -2.31843 3.28654
HEad  15.4131 44.1237 -0.257229
LeftShoulder1  0.475545 -0.352377 -5.4268
LeftArm  -19.0308 -0.0292496 -11.9615
LeftForeArm  -29.1048 5.67942 -3.13465
LeftHand  -0.0792097 7.64547 -1.79355
RightShoulder  1.24513 0.87686 23.5554
RightArm  -24.7507 6.27307 24.5228
RightForeArm  48.3049 -0.0886911 4.86334
RightHand  0.133429 -6.2218 -20.1157
LeftUpLeg  -32.2768 10.1525 -3.50262
LeftLeg  49.0267 2.52938 3.55097
LeftFoot  -2.80507 0.0741689 -0.767482
LeftToes  -1.2485e-010 1.20979e-011 -1.0929e-011
1885
root  65.824 38.9486 13.4953 -174.253 44.0964 -175.402
RightUpLeg  -3.23952 -11.6137 -3.98985
RightLeg  19.9804 5.76212 2.9334
RightFoot  -15.6082 0.0573484 4.37805
RightToes  2.96424e-010 1.2921e-014 -6.02303e-014
Spine  -2.39704 -0.954069 6.02967
Spine1  7.07587 -1.95874 2.70488
HEad  14.3259 43.0036 0.268078
LeftShoulder1  0.490581 -0.531382 -5.18521
LeftArm  -18.9328 0.356214 -10.5845
LeftForeArm  -26.4649 5.76206 -3.13005
LeftHand  -0.0304398 5.35476 -1.66439
RightShoulder  1.33699 1.28621 22.8828
RightArm  -23.5491 9.28258 23.6655
RightForeArm  46.59 3.15955 6.10275
RightHand  0.0443742 -5.69701 -20.528
LeftUpLeg  -33.1707 10.8057 -3.83648
LeftLeg  37.6193 4.67606 4.22025
LeftFoot  -1.90964 -0.0336645 0.547918
LeftToes  -1.2485e-010 1.20979e-011 -1.0929e-011
1886
root  66.7447 38.9247 12.311 -174.022 41.8726 -175.516
RightUpLeg  0.293773 -10.6828 -4.34525
RightLeg  17.8644 3.02633 2.19637
RightFoot  -16.3986 0.132516 5.51565
RightToes  2.96424e-010 1.2921e-014 -6.02303e-014
Spine  -3.09575 -0.623035 5.77777
Spine1  7.62673 -1.4968 1.66463
HEad  13.309 42.2661 1.03698
LeftShoulder1  0.443845 -0.287322 -4.6968
LeftArm  -18.7351 0.737638 -9.43649
LeftForeArm  -26.3471 5.76753 -3.14082
LeftHand  -0.0282974 6.12454 0.677339
RightShoulder  1.53317 2.1548 21.8125
RightArm  -23.6521 11.3253 23.2256
RightForeArm  45.343 5.96842 6.59798
RightHand  0.0825498 -5.91594 -20.4519
LeftUpLeg  -32.2286 10.3906 -3.35073
LeftLeg  23.4728 8.02294 4.12314
LeftFoot  0.6921 -0.157961 1.45916
LeftToes  -1.2485e-010 1.20979e-011 -1.0929e-011
1887
root  67.5877 38.8345 10.968 -173.603 40.0046 -175.461
RightUpLeg  3.53377 -9.71642 -4.56054
RightLeg  16.1951 1.05224 1.47706
RightFoot  -16.895 0.235669 7.21512
RightToes  2.96424e-010 1.2921e-014 -6.02303e-014
Spine  -4.06361 -0.114395 5.51432
Spine1  8.45767 -0.882609 0.936826
HEad  12.7435 41.2493 1.4337
LeftShoulder1  0.388727 0.111158 -4.48768
LeftArm  -19.0604 0.170204 -8.49679
LeftForeArm  -25.3168 5.79472 -3.11669
LeftHand  -0.00095243 7.16444 2.29117
RightShoulder  1.59037 2.65147 20.3477
RightArm  -24.1475 13.2118 22.7255
RightForeArm  45.1768 7.59956 6.68686
RightHand  0.0670344 -5.83484 -20.1918
LeftUpLeg  -29.6784 4.00902 0.518977
LeftLeg  8.24609 17.9425 2.35883
LeftFoot  0.835729 -0.22191 2.03309
LeftToes  -1.2485e-010 1.20979e-011 -1.0929e-011
1888
root  68.3278 38.6943 9.43883 -173.18 38.4211 -175.106
RightUpLeg  7.07871 -9.55104 -5.28793
RightLeg  14.6037 0.755769 1.58171
RightFoot  -16.736 0.326731 9.33106
RightToes  2.96424e-010 1.2921e-014 -6.02303e-014
Spine  -4.82194 0.315058 5.64759
Spine1  8.85922 -0.279843 0.196479
HEad  13.0384 40.9648 1.65028
LeftShoulder1  0.342731 0.376421 -3.95803
LeftArm  -18.7913 0.341894 -7.76684
LeftForeArm  -23.8705 5.85502 -3.21871
LeftHand  -0.0218634 6.08177 1.5809
RightShoulder  1.59145 2.90403 19.2019
RightArm  -23.7319 14.6945 21.8567
RightForeArm  44.9136 8.81383 6.86859
RightHand  0.0674996 -5.84718 -19.8652
LeftUpLeg  -27.9297 0.102718 2.38381
LeftLeg  -3.79816 22.6277 1.33119
LeftFoot  -1.86554 -0.303628 3.79834
LeftToes  -1.2485e-010 1.20979e-011 -1.0929e-011
1889
root  68.9919 38.4468 7.76401 -172.76 37.0886 -174.48
RightUpLeg  9.87108 -10.0347 -6.01516
RightLeg  15.0672 1.5854 1.523
RightFoot  -16.5362 0.435405 12.039
RightToes  2.96424e-010 1.2921e-014 -6.02303e-014
Spine  -5.15041 0.691342 5.34372
Spine1  8.8964 0.0695068 0.345833
HEad  13.245 41.6071 1.5455
LeftShoulder1  0.275249 0.833992 -3.31928
LeftArm  -18.5396 0.660401 -7.37988
LeftForeArm  -22.8946 5.84079 -3.2668
LeftHand  -0.0284764 5.09729 0.476766
RightShoulder  1.61816 3.11884 18.7305
RightArm  -23.4529 16.1717 20.4607
RightForeArm  45.8286 9.20238 7.01227
RightHand  -0.00176682 -5.44585 -19.2468
LeftUpLeg  -28.2441 -0.583228 2.71327
LeftLeg  -5.58683 27.4686 1.78238
LeftFoot  -6.73495 -0.0148229 1.37656
LeftToes  -1.2485e-010 1.20979e-011 -1.0929e-011
1890
root  69.5367 38.131 5.98014 -173.11 35.7177 -174.848
RightUpLeg  11.4811 -10.882 -8.08182
RightLeg  18.4343 4.37959 1.64141
RightFoot  -16.3536 0.579677 15.7029
RightToes  2.96424e-010 1.2921e-014 -6.02303e-014
Spine  -4.535 0.884607 4.08145
Spine1  8.1778 0.349696 0.443454
HEad  12.9042 42.5308 1.40171
LeftShoulder1  0.22561 1.13428 -2.47417
LeftArm  -17.9452 0.901831 -7.30465
LeftForeArm  -22.2601 5.34714 -3.60062
LeftHand  -0.0291334 5.13081 0.979643
RightShoulder  1.69302 3.3204 19.131
RightArm  -23.7528 16.6956 19.0617
RightForeArm  46.3942 9.5678 6.92278
RightHand  -0.038479 -5.22196 -18.9593
LeftUpLeg  -29.7014 1.05742 1.85637
LeftLeg  2.34486 26.8295 2.87832
LeftFoot  -6.48604 -0.195343 5.52573
LeftToes  -1.2485e-010 1.20979e-011 -1.0929e-011
1891
root  70.0077 38.2129 3.96427 -174.378 34.9767 -176.127
RightUpLeg  13.4624 -7.94446 -10.3483
RightLeg  20.5254 4.76837 1.76027
RightFoot  -12.3942 0.101689 20.1082
RightToes  2.96424e-010 1.2921e-014 -6.02303e-014
Spine  -5.57759 1.05376 2.07216
Spine1  9.85983 0.844562 -0.0878755
HEad  13.1667 43.6449 1.54253
LeftShoulder1  0.220371 1.07995 -1.91933
LeftArm  -16.8179 1.84087 -7.54375
LeftForeArm  -21.3781 4.29131 -4.18914
LeftHand  -0.0261956 5.4625 2.08736
RightShoulder  1.76536 3.47641 19.6535
RightArm  -24.2481 16.5234 18.1411
RightForeArm  47.4839 9.66909 6.76527
RightHand  -0.0341287 -5.24837 -18.5722
LeftUpLeg  -28.4353 1.29866 -0.114265
LeftLeg  6.59753 29.3606 4.12769
LeftFoot  -2.98078 -0.406194 5.79884
LeftToes  -1.2485e-010 1.20979e-011 -1.0929e-011
1892
root  70.2618 38.2289 2.09494 -175.175 34.2762 -177.665
RightUpLeg  8.55536 -2.77171 -11.5899
RightLeg  32.5409 2.61249 1.55371
RightFoot  -5.91623 -1.09339 21.966
RightToes  2.96424e-010 1.2921e-014 -6.02303e-014
Spine  -4.60234 0.920112 -0.553498
Spine1  8.61759 0.748469 -0.356014
HEad  14.6896 45.6918 2.22626
LeftShoulder1  0.160189 1.7231 -2.17175
LeftArm  -16.3438 2.51832 -7.73872
LeftForeArm  -19.5098 3.8836 -4.48269
LeftHand  0.0017574 6.43276 3.60442
RightShoulder  1.65616 2.77575 20.929
RightArm  -25.1149 17.1507 18.5509
RightForeArm  48.7673 8.81936 6.56949
RightHand  -0.0231037 -5.31719 -18.9178
LeftUpLeg  -28.2988 1.258 -2.47475
LeftLeg  10.7973 28.3978 5.35334
LeftFoot  0.478499 -0.620983 5.96533
LeftToes  -1.2485e-010 1.20979e-011 -1.0929e-011
1893
root  70.3967 38.3713 0.111789 -175.027 30.6672 -177.922
RightUpLeg  1.55171 -2.59305 -11.8949
RightLeg  46.4282 0.16523 -0.136773
RightFoot  6.4175 -2.04637 13.3278
RightToes  2.96424e-010 1.2921e-014 -6.02303e-014
Spine  -4.64305 -0.0280459 -0.863043
Spine1  8.2751 -0.252508 0.101454
HEad  12.8644 46.2228 0.405746
LeftShoulder1  0.236851 1.12578 -3.01264
LeftArm  -16.7424 1.80209 -8.38666
LeftForeArm  -18.0836 5.47459 -4.23069
LeftHand  -0.0357517 4.29674 1.45418
RightShoulder  1.55881 2.46409 20.6855
RightArm  -26.7327 14.8281 20.6298
RightForeArm  48.1255 9.63861 5.69476
RightHand  -0.0473342 -5.16576 -18.7067
LeftUpLeg  -27.2696 2.71627 -5.54074
LeftLeg  13.0126 23.6409 4.88035
LeftFoot  -0.253778 -0.64135 6.61575
LeftToes  -1.2485e-010 1.20979e-011 -1.0929e-011
1894
root  70.4255 38.3992 -1.67063 -175.663 27.1084 -178.429
RightUpLeg  -4.29738 -1.45555 -11.9526
RightLeg  56.9413 -0.220882 -0.807628
RightFoot  10.9059 -1.48248 7.912
RightToes  2.96424e-010 1.2921e-014 -6.02303e-014
Spine  -3.79271 -0.658322 -1.78923
Spine1  8.61698 -1.04161 0.023217
HEad  11.5079 45.7955 -2.12944
LeftShoulder1  0.372478 0.0767917 -3.77248
LeftArm  -16.271 0.299851 -9.42708
LeftForeArm  -18.6422 6.25659 -4.73734
LeftHand  -0.00532959 6.06171 3.97814
RightShoulder  1.48057 2.16441 20.7276
RightArm  -26.2812 11.7597 21.501
RightForeArm  46.037 10.4533 5.6102
RightHand  -0.0587044 -5.09178 -18.4336
LeftUpLeg  -25.3329 0.853187 -7.85974
LeftLeg  15.1774 22.2836 5.78253
LeftFoot  -1.79 -0.532607 6.49735
LeftToes  -1.2485e-010 1.20979e-011 -1.0929e-011
